<?xml version="1.0" encoding="UTF-8" standalone="no"?>
<!-- Created with Inkscape (http://www.inkscape.org/) -->

<svg
   xmlns:dc="http://purl.org/dc/elements/1.1/"
   xmlns:cc="http://creativecommons.org/ns#"
   xmlns:rdf="http://www.w3.org/1999/02/22-rdf-syntax-ns#"
   xmlns:svg="http://www.w3.org/2000/svg"
   xmlns="http://www.w3.org/2000/svg"
   xmlns:xlink="http://www.w3.org/1999/xlink"
   xmlns:sodipodi="http://sodipodi.sourceforge.net/DTD/sodipodi-0.dtd"
   xmlns:inkscape="http://www.inkscape.org/namespaces/inkscape"
   width="900"
   height="900"
   viewBox="0 0 238.12499 238.12501"
   version="1.1"
   id="svg8"
   inkscape:version="0.92.2 (5c3e80d, 2017-08-06)"
   sodipodi:docname="bg.svg">
  <defs
     id="defs2">
    <linearGradient
       inkscape:collect="always"
       id="linearGradient2359">
      <stop
         style="stop-color:#ffff00;stop-opacity:1;"
         offset="0"
         id="stop2355" />
      <stop
         style="stop-color:#ffff00;stop-opacity:0;"
         offset="1"
         id="stop2357" />
    </linearGradient>
    <pattern
       inkscape:collect="always"
       xlink:href="#Strips1_1"
       id="pattern2302"
       patternTransform="matrix(7.4408653,-6.6808326,6.6808326,7.4408653,22.678571,-55.184524)" />
    <pattern
       inkscape:isstock="true"
       inkscape:stockid="Stripes 1:1"
       id="Strips1_1"
       patternTransform="translate(0,0) scale(10,10)"
       height="1"
       width="2"
       patternUnits="userSpaceOnUse"
       inkscape:collect="always">
      <rect
         id="rect1571"
         height="2"
         width="1"
         y="-0.5"
         x="0"
         style="fill:black;stroke:none" />
    </pattern>
    <linearGradient
       inkscape:collect="always"
       id="linearGradient835">
      <stop
         style="stop-color:#ffff00;stop-opacity:1;"
         offset="0"
         id="stop831" />
      <stop
         style="stop-color:#ffff00;stop-opacity:0;"
         offset="1"
         id="stop833" />
    </linearGradient>
    <linearGradient
       inkscape:collect="always"
       xlink:href="#linearGradient835"
       id="linearGradient837"
       x1="233.24637"
       y1="189.66342"
       x2="143.48697"
       y2="99.904022"
       gradientUnits="userSpaceOnUse"
       gradientTransform="translate(328.08333)" />
    <linearGradient
       inkscape:collect="always"
       xlink:href="#linearGradient2359"
       id="linearGradient2361"
       x1="6.4445897"
       y1="199.48212"
       x2="453.17458"
       y2="199.48212"
       gradientUnits="userSpaceOnUse" />
    <linearGradient
       inkscape:collect="always"
       xlink:href="#linearGradient2359"
       id="linearGradient2381"
       x1="264.20541"
       y1="241.8344"
       x2="125.09123"
       y2="102.72021"
       gradientUnits="userSpaceOnUse" />
    <linearGradient
       inkscape:collect="always"
       xlink:href="#linearGradient2359"
       id="linearGradient2411"
       gradientUnits="userSpaceOnUse"
       x1="264.20541"
       y1="241.8344"
       x2="125.09123"
       y2="102.72021"
       gradientTransform="translate(-53.672619,-6.8035714)" />
  </defs>
  <sodipodi:namedview
     id="base"
     pagecolor="#ffffff"
     bordercolor="#666666"
     borderopacity="1.0"
     inkscape:pageopacity="0.0"
     inkscape:pageshadow="2"
     inkscape:zoom="0.35"
     inkscape:cx="683.27597"
     inkscape:cy="109.94"
     inkscape:document-units="mm"
     inkscape:current-layer="g2372"
     showgrid="false"
     units="px"
     inkscape:window-width="1680"
     inkscape:window-height="987"
     inkscape:window-x="1592"
     inkscape:window-y="-8"
     inkscape:window-maximized="1"
     inkscape:snap-global="false" />
  <metadata
     id="metadata5">
    <rdf:RDF>
      <cc:Work
         rdf:about="">
        <dc:format>image/svg+xml</dc:format>
        <dc:type
           rdf:resource="http://purl.org/dc/dcmitype/StillImage" />
        <dc:title></dc:title>
      </cc:Work>
    </rdf:RDF>
  </metadata>
  <g
     inkscape:label="Layer 1"
     inkscape:groupmode="layer"
     id="layer1"
     transform="translate(0,-58.874983)">
    <path
       style="fill:url(#linearGradient837);fill-opacity:1;stroke-width:0.47955272"
       d="m 543.76053,372.72106 c -0.98404,0.29677 -2.64222,0.26969 -3.68515,-0.0606 -6.0173,-1.90563 -5.61941,-10.49469 0.53981,-11.65207 4.55944,-0.85676 8.18023,3.10203 7.06064,7.71986 -0.52942,2.18376 -1.62577,3.30182 -3.91407,3.99417 z M 674.99598,236.4342 c -1.63813,0.4563 -2.56293,0.36278 -4.05706,-0.4102 -4.01038,-2.07482 -4.68672,-6.50854 -1.48171,-9.71355 1.41768,-1.41768 1.95151,-1.6351 4.01867,-1.63495 2.09264,1e-5 2.59712,0.21012 4.13087,1.72029 2.11153,2.07953 2.52506,3.92596 1.4512,6.48444 -0.99791,2.37748 -1.53947,2.85137 -4.0619,3.55405 z m -84.23024,82.01055 c -2.38846,-0.0699 -2.59419,-0.1733 -4.32458,-2.17356 -1.47211,-1.702 -1.80417,-2.43375 -1.74994,-3.85923 0.20562,-5.41067 6.7245,-7.98256 10.54623,-4.16081 2.4038,2.40379 2.3598,5.26889 -0.12506,8.14124 -1.79058,2.07014 -1.90453,2.124 -4.34669,2.05236 z m -19.70981,18.20405 c -1.43799,0.11972 -4.62273,-0.91218 -5.48926,-1.77871 -1.08842,-1.08842 -1.82928,-4.09726 -1.42233,-5.77622 0.50145,-2.06869 2.0415,-3.67204 4.29324,-4.46952 2.98248,-1.05645 7.03284,1.20276 7.57613,4.2258 0.49102,2.73251 0.13535,3.8701 -1.82257,5.82797 -1.2692,1.26921 -2.27059,1.89892 -3.13508,1.97082 z M 622.253,285.41974 c -4.87673,1.32589 -7.61233,1.04186 -11.44614,-1.18857 -1.86876,-1.08696 -2.34865,-1.5925 -3.55943,-3.74523 -0.76962,-1.36877 -1.36392,-2.87182 -1.32043,-3.34041 0.0432,-0.46859 -0.062,-0.99318 -0.23458,-1.16575 -0.26793,-0.26795 -0.28228,-2.21737 -0.0329,-4.44113 0.17896,-1.5957 2.17331,-5.04389 3.93782,-6.80841 3.72227,-3.72226 9.42856,-4.68647 14.50212,-2.45049 2.86417,1.26223 4.66449,3.25071 5.6815,6.27505 1.22402,3.64052 1.25258,4.25254 0.3649,7.82736 -0.73329,2.95338 -0.98132,3.36586 -3.54071,5.88904 -1.94508,1.92102 -3.22027,2.8406 -4.35182,3.14824 z M 515.06331,391.34545 c -0.50018,0.33591 -1.81622,0.61054 -2.92422,0.61049 -3.62261,4e-5 -6.52392,-2.9913 -6.36214,-6.56001 0.12699,-2.80627 2.64397,-5.40019 5.33849,-5.50198 3.16724,-0.11959 5.39478,1.38434 6.45433,4.35757 0.9216,2.58612 -0.10052,5.47905 -2.50641,7.09366 z M 692.893,212.28349 c -0.24714,0.12617 -1.08714,0.68583 -1.86752,1.24352 -1.89759,1.35612 -6.27638,1.63892 -8.93268,0.57661 -4.29941,-1.71942 -7.06458,-6.1108 -6.80131,-10.80125 0.29917,-5.33144 4.9545,-9.82592 10.31625,-9.95981 7.26587,-0.1814 12.47041,6.24292 10.71455,13.22563 -0.55726,2.21615 -2.31509,5.14578 -3.42929,5.7153 z m -49.11937,40.07313 c -5.43726,1.66378 -10.57086,-2.73746 -9.82168,-8.42055 0.27591,-2.09285 0.63572,-2.83988 2.04855,-4.25269 3.30809,-3.30811 7.51153,-3.19729 10.99869,0.28986 1.7505,1.75049 2.01607,2.27161 2.09977,4.12362 0.17784,3.92744 -1.94934,7.22673 -5.32533,8.25976 z m -99.5792,95.32929 c -3.16925,1.96492 -6.44851,2.14298 -10.30463,0.55965 -3.71504,-1.52547 -6.13082,-5.58532 -6.06334,-10.19104 0.0459,-3.1461 1.08202,-5.08576 4.12455,-7.72202 2.2135,-1.91795 2.79933,-2.18496 5.34971,-2.43803 3.57496,-0.35481 6.27115,0.61369 8.85934,3.18234 3.78345,3.75144 4.26671,8.7667 1.29103,13.34737 -0.77842,1.19816 -1.46108,2.19401 -1.51735,2.21264 -0.0561,0.0161 -0.83907,0.49062 -1.73944,1.04895 z m -62.2854,57.6521 c -8.31471,1.86125 -15.39669,-5.92226 -12.62999,-13.8811 2.97152,-8.54808 14.44612,-9.84608 19.23914,-2.17631 2.78936,4.46356 2.15365,9.29531 -1.73459,13.18354 -1.96087,1.96087 -2.67378,2.3814 -4.87456,2.87387 z m 28.96751,-38.11436 c -3.01834,1.03336 -5.76231,1.13465 -8.49441,0.31352 -1.69081,-0.5082 -2.66434,-1.20447 -5.14014,-3.67636 -2.78588,-2.78201 -3.10009,-3.26514 -3.57659,-5.50648 -1.10404,-5.19391 -0.0623,-8.82679 3.57416,-12.46314 3.63811,-3.63811 7.28164,-4.68196 12.45829,-3.56931 2.25537,0.48482 2.7109,0.78576 5.67365,3.74849 2.90731,2.90732 3.26912,3.44368 3.70972,5.50208 1.45457,6.7937 -2.09156,13.55828 -8.20468,15.6512 z m 77.49504,-79.26551 c -1.84754,0 -2.2114,-0.18107 -3.42714,-1.70567 -1.66769,-2.09144 -1.69513,-3.99741 -0.0879,-6.10262 1.03382,-1.35424 1.44002,-1.53777 3.46902,-1.56958 1.84161,-0.0288 2.5596,0.22552 3.61413,1.28005 3.03371,3.03371 0.80232,8.09787 -3.56811,8.09782 z m 62.48934,-62.09523 c -1.01518,0.47688 -2.91873,0.78139 -4.22987,0.67699 -2.1194,-0.16879 -2.61487,-0.41978 -4.46673,-2.26267 -1.44207,-1.4343 -2.05635,-2.35915 -1.99635,-3.00356 0.0477,-0.51224 -0.11122,-1.1285 -0.35292,-1.3702 -0.90628,-0.90628 0.40755,-4.33597 2.43923,-6.36766 2.33399,-2.33398 5.01385,-2.9195 8.06963,-1.76318 6.35615,2.40532 6.69133,11.2004 0.53701,14.09028 z m -88.36305,86.60995 c -2.56074,1.72295 -3.9637,2.2066 -6.82126,2.35152 -3.99296,0.20259 -7.05796,-0.97001 -9.84724,-3.7673 -5.397,-5.4125 -5.43378,-13.06791 -0.0886,-18.39314 3.53943,-3.52392 7.83002,-4.64617 12.82279,-3.34965 2.10499,0.54661 2.80099,1.00696 5.30656,3.50996 2.62795,2.62602 2.9415,3.12342 3.53534,5.62021 1.29842,5.45913 -0.71179,11.20536 -4.9076,14.0284 z M 668.19521,190.41638 c -1.3111,0.75999 -4.49878,0.46967 -5.4662,-0.49775 -0.98488,-0.98488 -1.54434,-3.81969 -1.06759,-5.40931 0.61499,-2.05023 1.90726,-2.95192 4.3646,-3.04533 1.43381,-0.0544 2.04227,0.23014 3.4049,1.59278 1.18754,1.18754 1.64212,2.00097 1.59911,2.86204 -0.086,1.72447 -1.25775,3.58349 -2.83482,4.49757 z m -55.91152,48.75086 c -2.89521,1.29439 -6.84226,-1.30113 -6.84227,-4.49942 4e-5,-2.4895 2.35886,-4.80609 4.79914,-4.71343 2.28172,0.0867 3.59486,0.91476 4.3529,2.7448 0.99153,2.39378 -0.11259,5.48572 -2.30984,6.46797 z m -142.62778,134.5475 c -3.82842,1.82559 -9.21512,0.80521 -12.1501,-2.30158 -4.04227,-4.27858 -4.05079,-10.90033 -0.0196,-14.93146 2.98946,-2.98946 6.21817,-3.87867 10.58181,-2.91429 1.69721,0.37508 2.56867,0.919 4.42047,2.75909 2.75798,2.74189 3.80095,5.45216 3.3743,8.77576 -0.503,3.91818 -2.67087,6.92631 -6.20681,8.61248 z M 581.94474,261.44995 c -5.02113,2.39143 -11.61899,-0.0171 -14.15518,-5.16737 -2.73114,-5.54604 0.12589,-12.64756 5.90385,-14.6751 4.38021,-1.53709 7.90871,-0.77 11.16074,2.42619 5.58851,5.49251 4.15894,14.04991 -2.90941,17.41628 z m -67.29184,58.94519 c -4.07887,1.48928 -6.93532,0.94134 -9.68158,-1.85714 -2.4585,-2.50659 -3.22773,-5.62363 -2.15037,-8.72282 1.45613,-4.18878 5.0877,-6.46553 9.49668,-5.9538 4.9643,0.57614 8.13891,5.16236 7.19148,10.38903 -0.56527,3.11819 -2.18689,5.1701 -4.85621,6.14473 z M 616.17728,216.61142 c -2.9801,0.90398 -6.51166,0.31359 -8.73659,-1.4606 -2.18343,-1.74128 -3.50322,-5.79862 -2.82801,-8.69511 0.66216,-2.84083 4.15798,-6.30573 6.66249,-6.60644 6.71011,-0.80153 11.41157,3.9624 10.29029,10.42721 -0.5717,3.29655 -2.37894,5.42026 -5.38971,6.33357 z m -65.14436,57.9009 c -2.81915,-0.0605 -4.87883,-2.23464 -4.72488,-4.98763 0.34406,-6.15174 9.29357,-5.89111 9.42567,0.27443 0.0591,2.7588 -1.94898,4.77213 -4.69926,4.71478 z m 88.43476,-89.56722 c -6.04145,2.8216 -11.897,1.5769 -16.17437,-3.4381 -5.49454,-6.44214 -3.11717,-16.55551 4.71933,-20.07648 8.7267,-3.92095 18.73546,2.86078 18.40336,12.46962 -0.15436,4.46422 -3.18999,9.28962 -6.94832,11.04496 z m -152.8316,146.05584 c -4.14067,1.3779 -7.88656,-2.92069 -5.78051,-6.63343 2.08351,-3.67295 6.28105,-3.65124 8.37678,0.0433 1.39231,2.45438 0.11904,5.68659 -2.59627,6.59013 z m 97.54408,-103.2935 c -0.73181,0.40257 -2.27663,0.78586 -3.43317,0.85135 -4.92523,0.27896 -8.55064,-3.91887 -7.84151,-9.07955 0.33058,-2.40559 0.55108,-2.81996 2.27963,-4.28377 1.34558,-1.13974 2.54503,-1.70564 4.04082,-1.90693 2.59429,-0.34921 3.62145,-0.0636 5.84679,1.62521 4.29042,3.256 3.80542,10.2079 -0.89256,12.79369 z M 542.9333,256.6252 c -2.69076,0.60629 -3.79827,0.59407 -5.82059,-0.0639 -3.90129,-1.26948 -6.18582,-5.30045 -5.58057,-9.84675 0.2554,-1.91839 0.59018,-2.50462 2.51389,-4.40212 1.77257,-1.74852 2.63698,-2.27172 4.29527,-2.59976 1.14184,-0.22598 2.39634,-0.27336 2.78785,-0.10532 0.3913,0.16779 1.32599,0.45424 2.07665,0.63611 2.21776,0.53724 5.16953,4.14679 5.51997,6.75009 0.5889,4.37544 -2.06746,8.79242 -5.79247,9.63173 z m -84.28413,82.43436 c -3.94274,1.45199 -7.52191,0.2137 -9.57759,-3.31367 -2.88709,-4.95394 0.59532,-11.39055 6.19676,-11.45371 2.61357,-0.0295 3.91489,0.49747 5.74321,2.32578 3.96561,3.96561 2.71093,10.57319 -2.36238,12.4416 z m 64.02205,-68.73482 c -2.96393,4e-5 -4.72707,-1.92459 -4.5308,-4.94573 0.0924,-1.42246 0.51196,-2.61679 1.13992,-3.24474 0.62792,-0.62791 1.82215,-1.04757 3.2447,-1.13988 1.86756,-0.12136 2.48056,0.0832 3.59838,1.20113 1.91839,1.91837 1.89247,4.76698 -0.0612,6.72064 -1.10471,1.10471 -1.83623,1.40849 -3.39097,1.40853 z m 80.64494,-79.12094 c -4.46455,2.85941 -10.17208,0.8874 -11.72432,-4.05088 -0.39574,-1.25915 -0.57665,-2.75675 -0.40196,-3.32804 0.17463,-0.57112 0.28213,-1.26544 0.2388,-1.54242 -0.0432,-0.27715 0.5337,-1.27226 1.28282,-2.21128 2.94536,-3.6935 8.09822,-3.92031 11.51205,-0.50649 1.36888,1.3689 1.98638,2.39812 2.28946,3.8154 0.22821,1.06742 0.27622,2.0833 0.10669,2.25744 -0.16891,0.17473 -0.33943,0.76718 -0.37783,1.31759 -0.0786,1.12806 -1.67644,3.44852 -2.92575,4.24868 z m -99.15656,97.56856 c -0.75031,0.39627 -2.45037,0.66949 -3.77829,0.60692 -2.10097,-0.099 -2.70987,-0.37394 -4.69091,-2.11783 -1.98861,-1.7507 -2.33378,-2.28567 -2.72962,-4.22957 -0.90246,-4.43389 1.8853,-8.57769 6.3749,-9.47586 1.32098,-0.26429 2.545,-0.33734 2.72007,-0.16229 0.17502,0.17503 0.77623,0.31805 1.33552,0.31825 0.66966,0 1.68714,0.66984 2.97676,1.95946 1.63448,1.63448 2.02295,2.35699 2.34244,4.35579 0.21067,1.31791 0.23686,2.87884 0.0583,3.46863 -0.46009,1.5196 -2.9983,4.42523 -4.60922,5.27647 z m 62.00003,-82.84355 c -2.42021,0.80769 -4.99037,-0.0575 -6.69328,-2.25329 -1.59038,-2.05096 -1.72526,-3.94263 -0.44934,-6.31017 2.36319,-4.38503 8.51263,-4.26495 10.69364,0.20878 1.68055,3.44727 0.11478,7.13129 -3.55102,8.35468 z M 457.00619,310.17033 c -5.02808,1.03119 -8.75406,-3.6795 -6.70087,-8.47166 0.79277,-1.85026 1.07336,-2.10105 3.68305,-3.29136 1.71398,-0.78175 4.53281,-0.0509 6.18806,1.60435 1.03178,1.03178 1.38507,1.90252 1.519,3.74204 0.1496,2.05768 -0.0446,2.65644 -1.37008,4.22499 -1.19473,1.41418 -1.94811,1.90795 -3.3192,2.1916 z M 612.7807,152.84257 c -1.78441,0.58539 -3.6227,-0.10724 -5.02919,-1.89507 -2.47353,-3.14397 -0.29997,-7.44428 3.76259,-7.4443 5.55991,2e-5 6.58969,7.59321 1.2666,9.33937 z m -26.947,19.18327 c -7.05475,2.46663 -14.62839,-2.82477 -14.58941,-10.19306 0.0137,-2.55012 1.39276,-5.9555 3.10055,-7.65528 1.62312,-1.61537 5.69647,-3.21615 7.94115,-3.12065 9.50965,0.40453 13.91117,11.75195 7.17178,18.48934 -1.05393,1.05361 -2.6304,2.13218 -3.62407,2.47965 z M 419.49361,333.97088 c -2.81388,0.71104 -6.21021,0.01 -8.30104,-1.71482 -2.22666,-1.83656 -3.2564,-5.07637 -2.67692,-8.42425 0.33439,-1.93176 0.7522,-2.68501 2.40773,-4.34056 2.32642,-2.3264 4.78181,-3.07803 8.01449,-2.4533 2.88023,0.5566 6.2943,3.97707 6.68348,6.6996 0.69131,4.81107 -1.91999,9.17146 -6.12958,10.23516 z m 55.36192,-55.22424 c -3.61043,1.72918 -7.8115,1.44924 -10.58112,-0.70514 -5.91903,-4.60424 -6.57578,-11.52082 -1.56975,-16.53217 3.42612,-3.42998 8.18258,-4.11454 12.46335,-1.79409 2.7268,1.47811 3.00912,1.76339 4.54136,4.58947 1.459,2.69166 1.54374,6.33467 0.22016,9.46686 -1.11782,2.64526 -1.98487,3.49542 -5.07357,4.97506 z m 56.89028,-57.04563 c -2.39145,0.5429 -3.31521,0.47725 -5.86439,-0.41656 -2.68584,-0.94171 -3.75084,-2.08768 -4.73558,-5.09523 -1.18975,-3.63437 -0.57789,-6.20692 2.11734,-8.90217 3.80381,-3.80381 8.27002,-3.77257 12.12251,0.0849 1.89952,1.90145 2.244,2.51313 2.50172,4.43919 0.44656,3.3359 -0.22543,5.49395 -2.37651,7.63156 -1.29311,1.28536 -2.39848,1.9483 -3.7652,2.25842 z m -37.57457,18.34598 c -1.00728,0.46818 -2.51614,0.87229 -3.35256,0.89842 -2.03869,0.0636 -5.50792,-1.83785 -6.4481,-3.53419 -0.85997,-1.55125 -1.66531,-4.48647 -1.32463,-4.82714 0.13289,-0.13303 0.24154,-0.747 0.24174,-1.36405 0,-1.89719 2.59252,-4.5847 5.292,-5.48593 1.28523,-0.42901 2.48842,-0.6284 2.67377,-0.44304 0.18545,0.18545 0.8937,0.36502 1.57436,0.39877 1.70639,0.085 4.92511,3.33943 5.48075,5.54496 0.88107,3.48354 -0.91985,7.31854 -4.1391,8.81396 z m -61.36891,52.59712 c -0.2551,0.11821 -1.25187,0.68072 -2.21503,1.25069 -2.16622,1.2815 -6.80332,1.62797 -9.74534,0.72828 -3.12998,-0.9572 -7.38202,-5.14239 -8.33676,-8.20545 -0.8455,-2.71306 -0.8485,-5.82135 -0.008,-8.56193 0.90322,-2.94588 5.20734,-7.32489 7.94509,-8.08357 4.66223,-1.29174 7.82617,-0.90325 11.30748,1.38841 4.70467,3.09694 6.92198,7.86348 6.04142,12.98724 -0.59259,3.44819 -3.0223,7.58614 -4.98885,8.49633 z M 545.06271,180.42367 c -0.26557,0.10765 -1.27105,0.66147 -2.23426,1.23139 -2.30167,1.36161 -7.11099,1.63223 -9.9948,0.56246 -4.88287,-1.81139 -8.71824,-7.21162 -8.72385,-12.28314 -0.004,-3.94814 0.94227,-6.12033 3.99918,-9.17724 3.03114,-3.03114 5.26852,-4.02022 8.99852,-3.97818 5.49739,0.062 10.78723,3.83132 12.47596,8.88968 0.9816,2.94023 0.78803,7.44747 -0.41323,9.62373 -1.03155,1.86879 -3.42077,4.85348 -4.10752,5.1313 z m -36.12583,28.36931 c -2.97215,1.11565 -5.36614,0.55743 -7.72491,-1.80134 -3.33871,-3.33871 -3.49605,-6.79144 -0.46901,-10.29053 1.44719,-1.67307 2.18139,-2.17556 3.69969,-2.53421 3.61808,-0.85412 7.04125,0.67938 8.79269,3.93882 1.21706,2.26511 1.2986,3.97926 0.30438,6.40064 -0.90329,2.19983 -2.15896,3.36922 -4.60292,4.28654 z m -114.87936,112.8055 c -0.69479,0.35839 -2.03336,0.62199 -2.97427,0.58623 -1.54199,-0.0586 -2.00562,-0.35986 -4.69942,-3.05366 -3.45368,-3.45369 -3.93812,-4.94484 -2.52062,-7.75884 1.15518,-2.29333 2.44854,-3.40798 4.97193,-4.28544 2.83421,-0.98525 6.20543,0.037 8.14545,2.46988 1.38189,1.73273 2.1326,5.01528 1.57126,6.86923 -0.44248,1.46145 -2.99606,4.40016 -4.49465,5.17228 z M 572.98256,129.67342 c -1.96633,0.6582 -4.04203,-0.0214 -5.9776,-1.95691 -1.67335,-1.67335 -1.81809,-2.02875 -1.72201,-4.23101 0.0897,-2.05484 0.34839,-2.64779 1.78113,-4.08051 1.4375,-1.4375 2.01141,-1.68622 4.0294,-1.74518 2.03069,-0.0595 2.5652,0.14326 3.90166,1.47971 2.12605,2.12604 2.70282,3.63481 2.19317,5.73676 -0.46351,1.91174 -2.48963,4.2227 -4.20588,4.79702 z M 464.09939,236.81239 c -2.27616,0.41877 -3.1942,0.13371 -4.85983,-1.50903 -1.11563,-1.10013 -1.55134,-1.90059 -1.50794,-2.76993 0.18976,-3.80418 4.43572,-6.27092 7.567,-4.39611 1.69623,1.01536 2.58798,3.91509 1.79688,5.84174 -0.88413,2.15323 -1.26693,2.51522 -2.99599,2.83345 z m -27.12386,18.40877 c -6.25691,3.27923 -13.5705,-2.95438 -11.28834,-9.62143 1.73508,-5.06897 7.79962,-7.11874 12.26122,-4.14432 1.83763,1.22487 3.28841,4.09866 3.28843,6.51308 -2e-5,3.51459 -1.2775,5.6889 -4.26131,7.25267 z M 549.23177,142.88405 c -2.31378,1.13901 -3.83876,1.33489 -5.69851,0.732 -5.15736,-1.67183 -7.48453,-7.02315 -5.02656,-11.55776 1.08077,-1.99384 1.40634,-2.30467 3.50165,-3.34301 1.58367,-0.78507 3.03338,-1.06539 4.61089,-0.89204 2.02093,0.22208 2.56477,0.51673 4.46917,2.42113 1.81914,1.81915 2.21276,2.50033 2.44577,4.2301 0.48244,3.58438 -1.20648,6.88582 -4.30227,8.40972 z m -74.33325,69.28703 c -2.7045,0.91358 -6.83064,0.62959 -8.61801,-0.59307 -4.7469,-3.24718 -6.66617,-8.11345 -5.09343,-12.91452 1.80076,-5.49742 6.42407,-8.15095 12.35786,-7.0927 4.91084,0.87574 9.13269,6.271 8.71784,11.14083 -0.33254,3.90344 -3.69223,8.21906 -7.36426,9.45946 z m -83.53956,72.73551 c -1.87096,4e-5 -2.20794,-0.1725 -3.57451,-1.82959 -1.89055,-2.29266 -1.84961,-4.18921 0.13424,-6.20569 1.00304,-1.01854 1.76215,-1.37525 2.82862,-1.32526 3.71228,0.17325 5.48785,1.91438 5.2125,5.11157 -0.23033,2.67502 -1.93468,4.24905 -4.60082,4.24916 z M 503.68261,172.66613 c -4.17647,-1e-5 -6.53449,-5.04694 -3.68797,-7.89347 1.70443,-1.70443 3.64401,-2.10637 5.54453,-1.14903 1.99147,1.00318 2.85291,2.56375 2.65919,4.81567 -0.22545,2.61792 -1.94429,4.22679 -4.51587,4.22671 z m -106.05843,87.15655 c -1.00532,0.29082 -2.86006,0.41977 -4.12129,0.28693 -2.0763,-0.21876 -2.52347,-0.47192 -4.72846,-2.6769 -2.02415,-2.02415 -2.47079,-2.73273 -2.64578,-4.19791 -0.39061,-3.27008 0.38913,-5.7298 2.47861,-7.81928 6.02265,-6.02265 15.821,-0.93394 14.66981,7.61874 -0.3979,2.95634 -2.93449,6.00248 -5.65289,6.78842 z m 80.3772,-79.65869 c -1.67688,0.74563 -4.52207,0.759 -6.70127,0.0315 -6.09699,-2.03543 -7.78026,-9.83942 -3.10252,-14.38389 6.45347,-6.26923 17.12007,0.38878 14.27512,8.9105 -0.70446,2.11015 -2.84944,4.72076 -4.47133,5.44192 z M 367.65781,288.87583 c -3.9183,2.14664 -9.00857,0.14186 -10.77316,-4.243 -1.29849,-3.2266 0.0122,-7.11118 3.0414,-9.01447 1.8066,-1.13535 3.29752,-1.4463 5.6078,-1.17036 2.26615,0.27067 5.73649,3.55782 6.1921,5.86529 0.63741,3.2278 -1.13331,6.95466 -4.06822,8.56262 z M 530.84709,125.16989 c -1.20132,0.68466 -4.53758,0.2174 -5.52926,-0.77429 -0.80006,-0.80005 -1.58268,-3.17926 -1.46446,-4.45175 0.11821,-1.27097 2.07255,-3.28559 3.65124,-3.76333 3.10251,-0.93939 6.85112,2.67776 5.83801,5.63295 -0.57689,1.6827 -1.32579,2.69008 -2.49518,3.35644 z m -95.66154,90.9005 c -3.75057,0 -6.13115,-4.10378 -4.10163,-7.07065 2.8267,-4.13218 8.7968,-2.59086 8.79676,2.27116 1e-5,2.88339 -1.87441,4.79945 -4.69525,4.79938 z M 549.91442,102.53614 c -4.24064,1.97586 -9.18357,-0.18876 -10.74406,-4.704973 -1.97168,-5.706319 3.91199,-11.500611 9.75391,-9.605741 3.83449,1.243765 6.26904,5.650656 5.11834,9.265659 -0.64581,2.029085 -2.48857,4.281095 -4.12819,5.045055 z m -43.24706,42.20488 c -1.60119,1.05007 -3.94175,1.5319 -5.21696,1.07444 -2.39939,-0.86082 -3.50971,-2.46673 -3.50968,-5.07629 2e-5,-2.15473 0.18568,-2.58199 1.84194,-4.23824 1.58191,-1.58192 2.16393,-1.86275 4.12301,-1.99008 2.1193,-0.1377 2.39434,-0.0207 3.87645,1.64869 1.39176,1.56804 1.56249,2.06633 1.33697,3.91222 -0.2717,2.22457 -1.08469,3.77296 -2.45173,4.66926 z m -89.25754,85.03733 c -3.16977,1.78073 -6.86404,2.11674 -10.7002,0.97328 -2.70102,-0.80511 -7.25752,-5.57918 -8.19254,-8.58345 -1.2574,-4.04067 -0.77979,-7.4937 1.52039,-10.99253 4.55524,-6.92896 14.25681,-7.91017 20.131,-2.03598 3.5588,3.55882 4.66247,7.93992 3.29593,13.08325 -0.61752,2.32407 -3.79048,6.28354 -6.0547,7.55555 z m 96.61543,-111.3651 c -1.60018,1.04347 -5.86966,0.76752 -7.59832,-0.49127 -5.93807,-4.32411 -4.06468,-12.95263 3.07275,-14.15299 4.64836,-0.78179 9.42515,4.00326 8.71627,8.73177 -0.25611,1.70907 -2.41445,4.75412 -4.19097,5.91275 z M 371.58578,254.16291 c -2.31517,1.22402 -5.55967,1.3972 -8.4729,0.45229 -2.93443,-0.95184 -6.03494,-4.51534 -6.74676,-7.75427 -0.77607,-3.53148 0.0681,-6.56807 2.62956,-9.4586 2.46734,-2.78455 4.35361,-3.63831 8.0385,-3.63815 2.49188,-1e-5 5.85669,1.34217 7.51013,2.99562 1.62378,1.62378 3.12427,5.65186 3.01694,8.09903 -0.10763,2.45307 -1.56914,5.97006 -3.07297,7.39458 -0.49167,0.46762 -1.79863,1.32605 -2.9025,1.9095 z m 58.24693,-65.02533 c -2.68223,0.5118 -5.02659,-0.21507 -6.97382,-2.1623 -3.03434,-3.03435 -3.14544,-7.05302 -0.28823,-10.42697 1.89074,-2.23277 4.0359,-2.98881 7.15399,-2.52149 2.63746,0.39525 5.68746,3.44525 6.08272,6.08271 0.65398,4.36379 -1.92082,8.25451 -5.97466,9.02805 z m 25.04535,-26.81561 c -6.12293,1.3426 -10.16965,-6.01286 -5.74334,-10.43917 2.23599,-2.23599 5.95416,-2.09137 8.37109,0.32557 1.74998,1.74996 2.3233,3.93101 1.61309,6.13639 -0.7417,2.3032 -2.0037,3.48669 -4.24079,3.97726 z"
       id="path21"
       inkscape:connector-curvature="0"
       sodipodi:nodetypes="ccccccccsccscccccscccscccsccccccscsccccccccccccccccccccccsscccccccccccccscscccccscsccccccsccsccsscccccccccccsccsccccccccccsccsccccccsccccsccccccccccccccscccccccccccccccccccccccccscccscsscccccccscccccccccscsccccccsccccsscccccccccccccccccscccccccccccccccsccccccccsccsccccccccccscccccccscscccsccccccccscccccccscscsccccccccccccccccccccscccccccccccccccccsccccccscscccccccccccccccscccccccccccsccccccsccccccccsccccccccccccccsccccscccccssccc" />
    <g
       id="g2353"
       style="fill:url(#linearGradient2361);fill-opacity:1;stroke:#ffff00;stroke-opacity:1">
      <g
         id="g2372">
        <path
           style="fill:url(#linearGradient2381);stroke:#ffff00;stroke-width:5.29166651;stroke-linecap:butt;stroke-linejoin:miter;stroke-miterlimit:4;stroke-dasharray:none;stroke-opacity:1;fill-opacity:1"
           d="M 177.64886,325.72616 430.13701,73.238078"
           id="path2409" />
        <path
           style="fill:url(#linearGradient2381);stroke:#ffff00;stroke-width:5.29166651;stroke-linecap:butt;stroke-linejoin:miter;stroke-miterlimit:4;stroke-dasharray:none;stroke-opacity:1;fill-opacity:1"
           d="M 156.48218,325.72616 408.97033,73.238078"
           id="path2407" />
        <path
           style="fill:url(#linearGradient2381);stroke:#ffff00;stroke-width:5.29166651;stroke-linecap:butt;stroke-linejoin:miter;stroke-miterlimit:4;stroke-dasharray:none;stroke-opacity:1;fill-opacity:1"
           d="M 135.3155,325.72616 387.80365,73.238078"
           id="path2405" />
        <path
           style="fill:url(#linearGradient2381);stroke:#ffff00;stroke-width:5.29166651;stroke-linecap:butt;stroke-linejoin:miter;stroke-miterlimit:4;stroke-dasharray:none;stroke-opacity:1;fill-opacity:1"
           d="M 114.14882,325.72616 366.63697,73.238078"
           id="path2403" />
        <path
           style="fill:url(#linearGradient2381);stroke:#ffff00;stroke-width:5.29166651;stroke-linecap:butt;stroke-linejoin:miter;stroke-miterlimit:4;stroke-dasharray:none;stroke-opacity:1;fill-opacity:1"
           d="M 92.982148,325.72616 345.47029,73.238078"
           id="path2401" />
      </g>
      <path
         style="fill:url(#linearGradient2361);stroke:#ffff00;stroke-width:5.29166651;stroke-linecap:butt;stroke-linejoin:miter;stroke-miterlimit:4;stroke-dasharray:none;stroke-opacity:1;fill-opacity:1"
         d="M 198.81554,325.72616 451.30369,73.238078"
         id="path2341"
         inkscape:connector-curvature="0" />
    </g>
  </g>
</svg>
